<svg width="323" height="101" viewBox="0 0 323 101" fill="none" xmlns="http://www.w3.org/2000/svg">
<path d="M11.5769 19.2099C3.11551 38.9093 -8.97225 81.411 10.3677 93.822C34.5427 109.336 88.5662 97.7808 103.257 59.5611C117.948 21.3414 53.764 3.09944 52.3423 2.44639C51.3412 1.98653 21.994 -7.30629 11.5769 19.2099Z" fill="#EC0247"/>
<path d="M145.791 79.5787C140.214 79.5787 135.334 78.3989 131.151 76.0393C126.968 73.6798 123.751 70.3014 121.499 65.904C119.246 61.5067 118.12 56.3586 118.12 50.4597C118.12 44.5608 119.246 39.4395 121.499 35.0958C123.751 30.6985 126.968 27.32 131.151 24.9605C135.334 22.6009 140.214 21.4211 145.791 21.4211C152.816 21.4211 158.876 23.3517 163.97 27.2128C164.775 27.8563 165.338 28.4998 165.66 29.1433C165.981 29.7868 166.142 30.5912 166.142 31.5565C166.142 32.9508 165.74 34.1573 164.936 35.1762C164.185 36.1415 163.247 36.6241 162.12 36.6241C161.37 36.6241 160.699 36.5437 160.109 36.3828C159.573 36.1683 158.956 35.8198 158.259 35.3371C156.114 33.9428 154.13 32.9508 152.307 32.3609C150.483 31.7174 148.526 31.3956 146.435 31.3956C141.287 31.3956 137.399 33.0044 134.771 36.222C132.197 39.3859 130.91 44.1318 130.91 50.4597C130.91 63.2227 136.085 69.6042 146.435 69.6042C148.419 69.6042 150.296 69.3093 152.065 68.7194C153.835 68.0759 155.9 67.057 158.259 65.6627C159.064 65.1801 159.734 64.8583 160.27 64.6974C160.807 64.4829 161.423 64.3757 162.12 64.3757C163.247 64.3757 164.185 64.8851 164.936 65.904C165.74 66.8693 166.142 68.0491 166.142 69.4433C166.142 70.4086 165.955 71.2398 165.579 71.9369C165.257 72.5805 164.721 73.1972 163.97 73.787C158.876 77.6481 152.816 79.5787 145.791 79.5787Z" fill="#06111D"/>
<path d="M179.393 79.3374C177.624 79.3374 176.149 78.8547 174.969 77.8894C173.843 76.9242 173.28 75.5031 173.28 73.6262V27.4541C173.28 25.5772 173.843 24.1561 174.969 23.1908C176.149 22.2255 177.624 21.7429 179.393 21.7429C181.109 21.7429 182.531 22.2255 183.657 23.1908C184.836 24.1561 185.426 25.5772 185.426 27.4541V73.6262C185.426 75.5031 184.836 76.9242 183.657 77.8894C182.531 78.8547 181.109 79.3374 179.393 79.3374Z" fill="#06111D"/>
<path d="M212.502 38.3938C218.294 38.3938 222.584 39.8149 225.373 42.6571C228.161 45.4456 229.555 49.7357 229.555 55.5274V73.7066C229.555 75.4763 229.046 76.8705 228.027 77.8894C227.008 78.8547 225.587 79.3374 223.764 79.3374C222.048 79.3374 220.653 78.8279 219.581 77.809C218.562 76.7365 218.053 75.369 218.053 73.7066V73.1435C217.248 75.1277 215.908 76.6829 214.031 77.809C212.154 78.9352 209.955 79.4982 207.435 79.4982C204.753 79.4982 202.313 78.962 200.115 77.8894C197.97 76.8169 196.254 75.3154 194.967 73.3849C193.733 71.4543 193.116 69.3093 193.116 66.9497C193.116 64.0539 193.84 61.7748 195.288 60.1124C196.79 58.45 199.176 57.2434 202.447 56.4926C205.719 55.7419 210.196 55.3665 215.881 55.3665H217.972V53.9186C217.972 51.6663 217.463 50.0307 216.444 49.0118C215.479 47.9929 213.843 47.4834 211.537 47.4834C209.231 47.4834 205.906 48.2878 201.563 49.8966C200.329 50.4865 199.283 50.7814 198.425 50.7814C197.246 50.7814 196.307 50.3792 195.61 49.5749C194.913 48.7168 194.564 47.6175 194.564 46.2768C194.564 45.2043 194.806 44.3195 195.288 43.6224C195.771 42.9252 196.549 42.2817 197.621 41.6918C199.498 40.6729 201.777 39.8685 204.458 39.2786C207.193 38.6888 209.875 38.3938 212.502 38.3938ZM210.089 71.1326C212.449 71.1326 214.352 70.355 215.8 68.7998C217.248 67.191 217.972 65.1264 217.972 62.606V61.2385H216.605C212.261 61.2385 209.204 61.5871 207.435 62.2842C205.719 62.9814 204.861 64.2416 204.861 66.0649C204.861 67.5664 205.343 68.7998 206.308 69.7651C207.327 70.6767 208.588 71.1326 210.089 71.1326Z" fill="#06111D"/>
<path d="M275.88 69.4433C277.114 70.6231 277.73 71.9638 277.73 73.4653C277.73 74.9668 277.167 76.3075 276.041 77.4873C274.969 78.667 273.708 79.2569 272.26 79.2569C270.866 79.2569 269.579 78.6938 268.399 77.5677L250.783 61.2385V73.5457C250.783 75.4226 250.193 76.8437 249.014 77.809C247.887 78.7743 246.466 79.2569 244.75 79.2569C242.981 79.2569 241.506 78.7743 240.326 77.809C239.2 76.8437 238.637 75.4226 238.637 73.5457V27.4541C238.637 25.5772 239.2 24.1561 240.326 23.1908C241.506 22.2255 242.981 21.7429 244.75 21.7429C246.466 21.7429 247.887 22.2255 249.014 23.1908C250.193 24.1561 250.783 25.5772 250.783 27.4541V56.2513L266.871 40.4048C268.051 39.225 269.365 38.6351 270.813 38.6351C272.314 38.6351 273.628 39.1982 274.754 40.3243C275.88 41.3969 276.443 42.6839 276.443 44.1854C276.443 45.5797 275.827 46.8935 274.593 48.127L263.895 58.3427L275.88 69.4433Z" fill="#06111D"/>
<path d="M302.082 79.4982C297.899 79.4982 294.226 78.667 291.062 77.0046C287.898 75.2886 285.458 72.9022 283.742 69.8455C282.026 66.7352 281.168 63.0886 281.168 58.9058C281.168 54.723 282.026 51.1032 283.742 48.0465C285.458 44.9362 287.898 42.5498 291.062 40.8874C294.226 39.225 297.899 38.3938 302.082 38.3938C306.265 38.3938 309.938 39.225 313.102 40.8874C316.266 42.5498 318.706 44.9362 320.422 48.0465C322.138 51.1032 322.996 54.723 322.996 58.9058C322.996 63.0886 322.138 66.7352 320.422 69.8455C318.706 72.9022 316.266 75.2886 313.102 77.0046C309.938 78.667 306.265 79.4982 302.082 79.4982ZM302.082 70.2477C307.981 70.2477 310.93 66.4671 310.93 58.9058C310.93 55.0983 310.153 52.2562 308.598 50.3792C307.096 48.5023 304.924 47.5639 302.082 47.5639C296.183 47.5639 293.234 51.3445 293.234 58.9058C293.234 66.4671 296.183 70.2477 302.082 70.2477Z" fill="#06111D"/>
<path fill-rule="evenodd" clip-rule="evenodd" d="M50.0413 36.7162C42.4287 36.7162 36.2575 42.8874 36.2575 50.5C36.2575 58.1126 42.4287 64.2838 50.0413 64.2838C52.4866 64.2838 54.7604 63.6541 56.7347 62.5541C60.6465 60.3745 65.5844 61.7788 67.764 65.6905C69.9435 69.6023 68.5393 74.5403 64.6275 76.7198C60.302 79.1299 55.3194 80.5 50.0413 80.5C33.4727 80.5 20.0413 67.0685 20.0413 50.5C20.0413 33.9315 33.4727 20.5 50.0413 20.5C55.3194 20.5 60.302 21.8701 64.6275 24.2802C68.5393 26.4597 69.9435 31.3977 67.764 35.3095C65.5844 39.2212 60.6465 40.6255 56.7347 38.4459C54.7604 37.3459 52.4866 36.7162 50.0413 36.7162Z" fill="white"/>
</svg>
